<svg xmlns="http://www.w3.org/2000/svg" width="21.886" height="21.887" viewBox="0 0 21.886 21.887">
  <g id="Grupo_2399" data-name="Grupo 2399" transform="translate(0 0)">
    <path id="Caminho_1583" data-name="Caminho 1583" d="M11.462,5.838a5.616,5.616,0,1,0,5.616,5.616,5.615,5.615,0,0,0-5.616-5.616Zm0,9.261a3.645,3.645,0,1,1,3.645-3.645A3.644,3.644,0,0,1,11.462,15.1Z" transform="translate(-0.515 -0.515)" fill="#eceeef"/>
    <path id="Caminho_1584" data-name="Caminho 1584" d="M15.455.069c-2.014-.094-7-.089-9.016,0a6.54,6.54,0,0,0-4.592,1.77C-.258,3.944.011,6.78.011,10.94c0,4.257-.237,7.027,1.836,9.1,2.113,2.112,4.99,1.836,9.1,1.836,4.217,0,5.672,0,7.163-.575,2.027-.787,3.557-2.6,3.707-5.854.095-2.014.089-7,0-9.016C21.636,2.589,19.574.259,15.455.069Zm3.187,18.578c-1.38,1.38-3.294,1.257-7.722,1.257-4.56,0-6.388.067-7.722-1.27C1.662,17.1,1.94,14.648,1.94,10.925c0-5.038-.517-8.667,4.54-8.926,1.162-.041,1.5-.055,4.428-.055l.041.027c4.86,0,8.672-.509,8.9,4.547.052,1.154.064,1.5.064,4.42,0,4.507.085,6.346-1.271,7.709Z" transform="translate(0 -0.001)" fill="#eceeef"/>
    <circle id="Elipse_35" data-name="Elipse 35" cx="1.312" cy="1.312" r="1.312" transform="translate(15.473 3.789)" fill="#eceeef"/>
  </g>
</svg>
