<svg xmlns="http://www.w3.org/2000/svg" width="150.968" height="35.811" viewBox="0 0 150.968 35.811">
  <g id="Grupo_2169" data-name="Grupo 2169" transform="translate(-1306.854 -814.183)">
    <g id="Grupo_2135" data-name="Grupo 2135" transform="translate(1004.086 526.394)">
      <path id="Caminho_1703" data-name="Caminho 1703" d="M305.589,290.611,316.02,302.6l10.44-11.989L336.894,302.6l10.439-11.989L357.776,302.6l10.443-11.989L378.663,302.6l10.446-11.989L399.55,302.6,410,290.611,420.457,302.6l10.457-11.989" transform="translate(0 0)" fill="none" stroke="#fff" stroke-linecap="round" stroke-linejoin="round" stroke-width="4"/>
    </g>
    <g id="Grupo_2140" data-name="Grupo 2140" transform="translate(1038.086 546.394)">
      <g id="Grupo_2168" data-name="Grupo 2168">
        <path id="Caminho_1703-2" data-name="Caminho 1703" d="M305.589,290.611,316.02,302.6l10.44-11.989L336.894,302.6l10.439-11.989L357.776,302.6l10.443-11.989L378.663,302.6l10.446-11.989L399.55,302.6,410,290.611,420.457,302.6l10.457-11.989" transform="translate(-14 -1)" fill="none" stroke="#efca6f" stroke-linecap="round" stroke-linejoin="round" stroke-width="4"/>
      </g>
    </g>
  </g>
</svg>
