<svg xmlns="http://www.w3.org/2000/svg" width="25.287" height="19.944" viewBox="0 0 25.287 19.944">
  <path id="Caminho_1579" data-name="Caminho 1579" d="M89,84.347a10.6,10.6,0,0,1-2.98.794A5.076,5.076,0,0,0,88.3,82.354,10.518,10.518,0,0,1,85,83.577a5.255,5.255,0,0,0-3.787-1.589,5.112,5.112,0,0,0-5.187,5.033,4.886,4.886,0,0,0,.134,1.148A14.881,14.881,0,0,1,65.47,82.909a4.891,4.891,0,0,0-.7,2.531,4.993,4.993,0,0,0,2.307,4.19A5.275,5.275,0,0,1,64.723,89v.064A5.079,5.079,0,0,0,68.885,94a5.365,5.365,0,0,1-1.367.177,5.231,5.231,0,0,1-.975-.09,5.174,5.174,0,0,0,4.847,3.5,10.606,10.606,0,0,1-6.444,2.156,10.908,10.908,0,0,1-1.239-.07,15.014,15.014,0,0,0,7.954,2.263A14.436,14.436,0,0,0,86.423,87.6l-.015-.652A10.353,10.353,0,0,0,89,84.347Z" transform="translate(-63.708 -81.988)" fill="#eceeef"/>
</svg>
