<svg xmlns="http://www.w3.org/2000/svg" width="23.942" height="23.938" viewBox="0 0 23.942 23.938">
  <path id="Caminho_1581" data-name="Caminho 1581" d="M75.21,63.977a2.507,2.507,0,0,0,1.586-.519,1.518,1.518,0,0,0,.575-1.257V58.972a1.418,1.418,0,0,0-.586-1.17,2.4,2.4,0,0,0-1.509-.452,2.7,2.7,0,0,0-1.607.428,1.352,1.352,0,0,0-.6,1.156v3.239a1.546,1.546,0,0,0,.583,1.268A2.423,2.423,0,0,0,75.21,63.977Zm-.7-4.884a.345.345,0,0,1,.19-.3.96.96,0,0,1,.5-.113,1.085,1.085,0,0,1,.534.113.341.341,0,0,1,.2.3V62.16a.406.406,0,0,1-.2.358.983.983,0,0,1-.536.129.854.854,0,0,1-.508-.128.416.416,0,0,1-.177-.359Zm5.159,4.88a1.661,1.661,0,0,0,.728-.271,2.724,2.724,0,0,0,.725-.6v.717h1.257V57.341H81.118v4.914a1.783,1.783,0,0,1-.387.347.714.714,0,0,1-.351.137.294.294,0,0,1-.255-.1.538.538,0,0,1-.082-.33V57.342H78.787v5.409a1.427,1.427,0,0,0,.221.866A.825.825,0,0,0,79.665,63.973Zm3.656,2.676h-15.2a4.291,4.291,0,0,0-4.374,4.2V74.4a4.291,4.291,0,0,0,4.374,4.2H83.322A4.292,4.292,0,0,0,87.7,74.4V70.85A4.291,4.291,0,0,0,83.322,66.648ZM70.387,70.254H69.043v5.564h-1.3V70.254H66.4v-.949h3.988S70.387,70.254,70.387,70.254ZM74.4,75.9H73v-.577a2.992,2.992,0,0,1-.81.486,2.125,2.125,0,0,1-.813.169,1.016,1.016,0,0,1-.732-.237.931.931,0,0,1-.246-.7V70.64h1.4v4.03a.365.365,0,0,0,.085.269.414.414,0,0,0,.289.082.966.966,0,0,0,.391-.11A1.8,1.8,0,0,0,73,74.629v-3.99h1.4S74.4,75.9,74.4,75.9Zm5.3-1a.982.982,0,0,1-.326.792,1.406,1.406,0,0,1-.939.275,2.284,2.284,0,0,1-.725-.105,1.824,1.824,0,0,1-.592-.33V75.9h-1.4V69.306h1.4v2.125a2.278,2.278,0,0,1,.593-.338,1.821,1.821,0,0,1,.639-.116,1.455,1.455,0,0,1,1,.309,1.157,1.157,0,0,1,.349.91S79.7,74.9,79.7,74.9Zm5.33-1.484H82.45v.95a.862.862,0,0,0,.132.552.586.586,0,0,0,.458.153.671.671,0,0,0,.471-.13.854.854,0,0,0,.136-.576v-.229h1.388v.258a1.373,1.373,0,0,1-.51,1.167,2.459,2.459,0,0,1-1.516.391,2.234,2.234,0,0,1-1.429-.415,1.381,1.381,0,0,1-.522-1.142V72.126a1.267,1.267,0,0,1,.575-1.07,2.468,2.468,0,0,1,1.477-.411,2.308,2.308,0,0,1,1.425.382,1.3,1.3,0,0,1,.5,1.1S85.031,73.412,85.031,73.412Zm-15.4-9.42h1.587V60.123l1.848-5.455H71.456L70.474,58.4h-.1l-1.03-3.728h-1.6l1.892,5.63S69.634,63.991,69.634,63.991ZM77.7,71.748,77.4,71.8l-.286.148v3.031a1.219,1.219,0,0,0,.329.172l.334.052a.553.553,0,0,0,.374-.1.42.42,0,0,0,.12-.333V72.249a.461.461,0,0,0-.145-.374A.656.656,0,0,0,77.7,71.748Z" transform="translate(-63.753 -54.668)" fill="#eceeef"/>
</svg>
