<svg xmlns="http://www.w3.org/2000/svg" width="30" height="29.444" viewBox="0 0 30 29.444">
  <g id="Grupo_2400" data-name="Grupo 2400" transform="translate(-1164 -5776)">
    <g id="Caminho_1706" data-name="Caminho 1706" transform="translate(1164 5776)" fill="none">
      <path d="M15,0A14.863,14.863,0,0,1,30,14.722,14.863,14.863,0,0,1,15,29.444,14.863,14.863,0,0,1,0,14.722,14.863,14.863,0,0,1,15,0Z" stroke="none"/>
      <path d="M 15.00000953674316 2 C 11.52052879333496 2 8.251230239868164 3.328010559082031 5.794340133666992 5.739410400390625 C 3.347518920898438 8.140911102294922 2 11.3310718536377 2 14.72223091125488 C 2 18.1133918762207 3.347518920898438 21.30355072021484 5.794340133666992 23.70505142211914 C 8.251230239868164 26.11645126342773 11.52052879333496 27.44446182250977 15.00000953674316 27.44446182250977 C 18.4794807434082 27.44446182250977 21.7487907409668 26.11644172668457 24.20567893981934 23.70505142211914 C 26.65250015258789 21.30354118347168 28.00001907348633 18.11338043212891 28.00001907348633 14.72223091125488 C 28.00001907348633 11.33108139038086 26.65250015258789 8.140920639038086 24.20567893981934 5.739410400390625 C 21.7487907409668 3.328020095825195 18.4794807434082 2 15.00000953674316 2 M 15.00000953674316 0 C 23.28427886962891 0 30.00001907348633 6.591371536254883 30.00001907348633 14.72223091125488 C 30.00001907348633 22.85309028625488 23.28427886962891 29.44446182250977 15.00000953674316 29.44446182250977 C 6.715728759765625 29.44446182250977 0 22.85309028625488 0 14.72223091125488 C 0 6.591371536254883 6.715728759765625 0 15.00000953674316 0 Z" stroke="none" fill="#fff"/>
    </g>
    <g id="send" transform="translate(1172.358 5784.948)">
      <path id="Caminho_1586" data-name="Caminho 1586" d="M8.75,17.612v2.239a.362.362,0,0,0,.654.214l1.31-1.782Z" transform="translate(-4.526 -9.111)" fill="#fff"/>
      <path id="Caminho_1587" data-name="Caminho 1587" d="M11.433.067a.362.362,0,0,0-.377-.026L.195,5.713a.362.362,0,0,0,.05.664L3.264,7.408l6.43-5.5L4.718,7.905l5.06,1.73a.37.37,0,0,0,.117.019.362.362,0,0,0,.358-.308L11.581.416a.363.363,0,0,0-.148-.349Z" transform="translate(0 0)" fill="#fff"/>
    </g>
  </g>
</svg>
