<svg xmlns="http://www.w3.org/2000/svg" xmlns:xlink="http://www.w3.org/1999/xlink" width="733.773" height="218.091" viewBox="0 0 733.773 218.091">
  <defs>
    <clipPath id="clip-path">
      <rect width="733.773" height="218.091" fill="none"/>
    </clipPath>
  </defs>
  <g id="Repetição_de_grade_2" data-name="Repetição de grade 2" opacity="0.2" clip-path="url(#clip-path)">
    <g id="Grupo_2138" data-name="Grupo 2138" transform="translate(-418.966 -365.109)">
      <g id="Grupo_2137" data-name="Grupo 2137" transform="translate(418.966 365.109)">
        <path id="Caminho_1704" data-name="Caminho 1704" d="M462.571,391.183a3.625,3.625,0,1,1,3.625,3.625A3.625,3.625,0,0,1,462.571,391.183Z" transform="translate(-356.049 -332.718)" fill="#fff"/>
        <path id="Caminho_1705" data-name="Caminho 1705" d="M451.67,391.183a3.624,3.624,0,1,1,3.623,3.625A3.625,3.625,0,0,1,451.67,391.183Z" transform="translate(-371.778 -332.718)" fill="#fff"/>
        <path id="Caminho_1706" data-name="Caminho 1706" d="M440.768,391.183a3.625,3.625,0,1,1,3.625,3.625A3.627,3.627,0,0,1,440.768,391.183Z" transform="translate(-387.508 -332.718)" fill="#fff"/>
        <path id="Caminho_1707" data-name="Caminho 1707" d="M429.867,391.183a3.625,3.625,0,1,1,3.625,3.625A3.627,3.627,0,0,1,429.867,391.183Z" transform="translate(-403.237 -332.718)" fill="#fff"/>
        <path id="Caminho_1708" data-name="Caminho 1708" d="M418.966,391.183a3.625,3.625,0,1,1,3.625,3.625A3.625,3.625,0,0,1,418.966,391.183Z" transform="translate(-418.966 -332.718)" fill="#fff"/>
        <path id="Caminho_1709" data-name="Caminho 1709" d="M462.571,379.959a3.625,3.625,0,1,1,3.625,3.625A3.624,3.624,0,0,1,462.571,379.959Z" transform="translate(-356.049 -348.913)" fill="#fff"/>
        <path id="Caminho_1710" data-name="Caminho 1710" d="M451.67,379.959a3.624,3.624,0,1,1,3.623,3.625A3.623,3.623,0,0,1,451.67,379.959Z" transform="translate(-371.778 -348.913)" fill="#fff"/>
        <path id="Caminho_1711" data-name="Caminho 1711" d="M440.768,379.959a3.625,3.625,0,1,1,3.625,3.625A3.626,3.626,0,0,1,440.768,379.959Z" transform="translate(-387.508 -348.913)" fill="#fff"/>
        <path id="Caminho_1712" data-name="Caminho 1712" d="M429.867,379.959a3.625,3.625,0,1,1,3.625,3.625A3.625,3.625,0,0,1,429.867,379.959Z" transform="translate(-403.237 -348.913)" fill="#fff"/>
        <path id="Caminho_1713" data-name="Caminho 1713" d="M418.966,379.959a3.625,3.625,0,1,1,3.625,3.625A3.624,3.624,0,0,1,418.966,379.959Z" transform="translate(-418.966 -348.913)" fill="#fff"/>
        <path id="Caminho_1714" data-name="Caminho 1714" d="M462.571,368.734a3.625,3.625,0,1,1,3.625,3.625A3.625,3.625,0,0,1,462.571,368.734Z" transform="translate(-356.049 -365.109)" fill="#fff"/>
        <path id="Caminho_1715" data-name="Caminho 1715" d="M451.67,368.734a3.624,3.624,0,1,1,3.623,3.625A3.625,3.625,0,0,1,451.67,368.734Z" transform="translate(-371.778 -365.109)" fill="#fff"/>
        <path id="Caminho_1716" data-name="Caminho 1716" d="M440.768,368.734a3.625,3.625,0,1,1,3.625,3.625A3.627,3.627,0,0,1,440.768,368.734Z" transform="translate(-387.508 -365.109)" fill="#fff"/>
        <path id="Caminho_1717" data-name="Caminho 1717" d="M429.867,368.734a3.625,3.625,0,1,1,3.625,3.625A3.627,3.627,0,0,1,429.867,368.734Z" transform="translate(-403.237 -365.109)" fill="#fff"/>
        <path id="Caminho_1718" data-name="Caminho 1718" d="M418.966,368.734a3.625,3.625,0,1,1,3.625,3.625A3.625,3.625,0,0,1,418.966,368.734Z" transform="translate(-418.966 -365.109)" fill="#fff"/>
      </g>
    </g>
    <g id="Grupo_2138-2" data-name="Grupo 2138" transform="translate(-284.966 -365.109)">
      <g id="Grupo_2137-2" data-name="Grupo 2137" transform="translate(418.966 365.109)">
        <path id="Caminho_1704-2" data-name="Caminho 1704" d="M462.571,391.183a3.625,3.625,0,1,1,3.625,3.625A3.625,3.625,0,0,1,462.571,391.183Z" transform="translate(-356.049 -332.718)" fill="#fff"/>
        <path id="Caminho_1705-2" data-name="Caminho 1705" d="M451.67,391.183a3.624,3.624,0,1,1,3.623,3.625A3.625,3.625,0,0,1,451.67,391.183Z" transform="translate(-371.778 -332.718)" fill="#fff"/>
        <path id="Caminho_1706-2" data-name="Caminho 1706" d="M440.768,391.183a3.625,3.625,0,1,1,3.625,3.625A3.627,3.627,0,0,1,440.768,391.183Z" transform="translate(-387.508 -332.718)" fill="#fff"/>
        <path id="Caminho_1707-2" data-name="Caminho 1707" d="M429.867,391.183a3.625,3.625,0,1,1,3.625,3.625A3.627,3.627,0,0,1,429.867,391.183Z" transform="translate(-403.237 -332.718)" fill="#fff"/>
        <path id="Caminho_1708-2" data-name="Caminho 1708" d="M418.966,391.183a3.625,3.625,0,1,1,3.625,3.625A3.625,3.625,0,0,1,418.966,391.183Z" transform="translate(-418.966 -332.718)" fill="#fff"/>
        <path id="Caminho_1709-2" data-name="Caminho 1709" d="M462.571,379.959a3.625,3.625,0,1,1,3.625,3.625A3.624,3.624,0,0,1,462.571,379.959Z" transform="translate(-356.049 -348.913)" fill="#fff"/>
        <path id="Caminho_1710-2" data-name="Caminho 1710" d="M451.67,379.959a3.624,3.624,0,1,1,3.623,3.625A3.623,3.623,0,0,1,451.67,379.959Z" transform="translate(-371.778 -348.913)" fill="#fff"/>
        <path id="Caminho_1711-2" data-name="Caminho 1711" d="M440.768,379.959a3.625,3.625,0,1,1,3.625,3.625A3.626,3.626,0,0,1,440.768,379.959Z" transform="translate(-387.508 -348.913)" fill="#fff"/>
        <path id="Caminho_1712-2" data-name="Caminho 1712" d="M429.867,379.959a3.625,3.625,0,1,1,3.625,3.625A3.625,3.625,0,0,1,429.867,379.959Z" transform="translate(-403.237 -348.913)" fill="#fff"/>
        <path id="Caminho_1713-2" data-name="Caminho 1713" d="M418.966,379.959a3.625,3.625,0,1,1,3.625,3.625A3.624,3.624,0,0,1,418.966,379.959Z" transform="translate(-418.966 -348.913)" fill="#fff"/>
        <path id="Caminho_1714-2" data-name="Caminho 1714" d="M462.571,368.734a3.625,3.625,0,1,1,3.625,3.625A3.625,3.625,0,0,1,462.571,368.734Z" transform="translate(-356.049 -365.109)" fill="#fff"/>
        <path id="Caminho_1715-2" data-name="Caminho 1715" d="M451.67,368.734a3.624,3.624,0,1,1,3.623,3.625A3.625,3.625,0,0,1,451.67,368.734Z" transform="translate(-371.778 -365.109)" fill="#fff"/>
        <path id="Caminho_1716-2" data-name="Caminho 1716" d="M440.768,368.734a3.625,3.625,0,1,1,3.625,3.625A3.627,3.627,0,0,1,440.768,368.734Z" transform="translate(-387.508 -365.109)" fill="#fff"/>
        <path id="Caminho_1717-2" data-name="Caminho 1717" d="M429.867,368.734a3.625,3.625,0,1,1,3.625,3.625A3.627,3.627,0,0,1,429.867,368.734Z" transform="translate(-403.237 -365.109)" fill="#fff"/>
        <path id="Caminho_1718-2" data-name="Caminho 1718" d="M418.966,368.734a3.625,3.625,0,1,1,3.625,3.625A3.625,3.625,0,0,1,418.966,368.734Z" transform="translate(-418.966 -365.109)" fill="#fff"/>
      </g>
    </g>
    <g id="Grupo_2138-3" data-name="Grupo 2138" transform="translate(-150.966 -365.109)">
      <g id="Grupo_2137-3" data-name="Grupo 2137" transform="translate(418.966 365.109)">
        <path id="Caminho_1704-3" data-name="Caminho 1704" d="M462.571,391.183a3.625,3.625,0,1,1,3.625,3.625A3.625,3.625,0,0,1,462.571,391.183Z" transform="translate(-356.049 -332.718)" fill="#fff"/>
        <path id="Caminho_1705-3" data-name="Caminho 1705" d="M451.67,391.183a3.624,3.624,0,1,1,3.623,3.625A3.625,3.625,0,0,1,451.67,391.183Z" transform="translate(-371.778 -332.718)" fill="#fff"/>
        <path id="Caminho_1706-3" data-name="Caminho 1706" d="M440.768,391.183a3.625,3.625,0,1,1,3.625,3.625A3.627,3.627,0,0,1,440.768,391.183Z" transform="translate(-387.508 -332.718)" fill="#fff"/>
        <path id="Caminho_1707-3" data-name="Caminho 1707" d="M429.867,391.183a3.625,3.625,0,1,1,3.625,3.625A3.627,3.627,0,0,1,429.867,391.183Z" transform="translate(-403.237 -332.718)" fill="#fff"/>
        <path id="Caminho_1708-3" data-name="Caminho 1708" d="M418.966,391.183a3.625,3.625,0,1,1,3.625,3.625A3.625,3.625,0,0,1,418.966,391.183Z" transform="translate(-418.966 -332.718)" fill="#fff"/>
        <path id="Caminho_1709-3" data-name="Caminho 1709" d="M462.571,379.959a3.625,3.625,0,1,1,3.625,3.625A3.624,3.624,0,0,1,462.571,379.959Z" transform="translate(-356.049 -348.913)" fill="#fff"/>
        <path id="Caminho_1710-3" data-name="Caminho 1710" d="M451.67,379.959a3.624,3.624,0,1,1,3.623,3.625A3.623,3.623,0,0,1,451.67,379.959Z" transform="translate(-371.778 -348.913)" fill="#fff"/>
        <path id="Caminho_1711-3" data-name="Caminho 1711" d="M440.768,379.959a3.625,3.625,0,1,1,3.625,3.625A3.626,3.626,0,0,1,440.768,379.959Z" transform="translate(-387.508 -348.913)" fill="#fff"/>
        <path id="Caminho_1712-3" data-name="Caminho 1712" d="M429.867,379.959a3.625,3.625,0,1,1,3.625,3.625A3.625,3.625,0,0,1,429.867,379.959Z" transform="translate(-403.237 -348.913)" fill="#fff"/>
        <path id="Caminho_1713-3" data-name="Caminho 1713" d="M418.966,379.959a3.625,3.625,0,1,1,3.625,3.625A3.624,3.624,0,0,1,418.966,379.959Z" transform="translate(-418.966 -348.913)" fill="#fff"/>
        <path id="Caminho_1714-3" data-name="Caminho 1714" d="M462.571,368.734a3.625,3.625,0,1,1,3.625,3.625A3.625,3.625,0,0,1,462.571,368.734Z" transform="translate(-356.049 -365.109)" fill="#fff"/>
        <path id="Caminho_1715-3" data-name="Caminho 1715" d="M451.67,368.734a3.624,3.624,0,1,1,3.623,3.625A3.625,3.625,0,0,1,451.67,368.734Z" transform="translate(-371.778 -365.109)" fill="#fff"/>
        <path id="Caminho_1716-3" data-name="Caminho 1716" d="M440.768,368.734a3.625,3.625,0,1,1,3.625,3.625A3.627,3.627,0,0,1,440.768,368.734Z" transform="translate(-387.508 -365.109)" fill="#fff"/>
        <path id="Caminho_1717-3" data-name="Caminho 1717" d="M429.867,368.734a3.625,3.625,0,1,1,3.625,3.625A3.627,3.627,0,0,1,429.867,368.734Z" transform="translate(-403.237 -365.109)" fill="#fff"/>
        <path id="Caminho_1718-3" data-name="Caminho 1718" d="M418.966,368.734a3.625,3.625,0,1,1,3.625,3.625A3.625,3.625,0,0,1,418.966,368.734Z" transform="translate(-418.966 -365.109)" fill="#fff"/>
      </g>
    </g>
    <g id="Grupo_2138-4" data-name="Grupo 2138" transform="translate(-16.966 -365.109)">
      <g id="Grupo_2137-4" data-name="Grupo 2137" transform="translate(418.966 365.109)">
        <path id="Caminho_1704-4" data-name="Caminho 1704" d="M462.571,391.183a3.625,3.625,0,1,1,3.625,3.625A3.625,3.625,0,0,1,462.571,391.183Z" transform="translate(-356.049 -332.718)" fill="#fff"/>
        <path id="Caminho_1705-4" data-name="Caminho 1705" d="M451.67,391.183a3.624,3.624,0,1,1,3.623,3.625A3.625,3.625,0,0,1,451.67,391.183Z" transform="translate(-371.778 -332.718)" fill="#fff"/>
        <path id="Caminho_1706-4" data-name="Caminho 1706" d="M440.768,391.183a3.625,3.625,0,1,1,3.625,3.625A3.627,3.627,0,0,1,440.768,391.183Z" transform="translate(-387.508 -332.718)" fill="#fff"/>
        <path id="Caminho_1707-4" data-name="Caminho 1707" d="M429.867,391.183a3.625,3.625,0,1,1,3.625,3.625A3.627,3.627,0,0,1,429.867,391.183Z" transform="translate(-403.237 -332.718)" fill="#fff"/>
        <path id="Caminho_1708-4" data-name="Caminho 1708" d="M418.966,391.183a3.625,3.625,0,1,1,3.625,3.625A3.625,3.625,0,0,1,418.966,391.183Z" transform="translate(-418.966 -332.718)" fill="#fff"/>
        <path id="Caminho_1709-4" data-name="Caminho 1709" d="M462.571,379.959a3.625,3.625,0,1,1,3.625,3.625A3.624,3.624,0,0,1,462.571,379.959Z" transform="translate(-356.049 -348.913)" fill="#fff"/>
        <path id="Caminho_1710-4" data-name="Caminho 1710" d="M451.67,379.959a3.624,3.624,0,1,1,3.623,3.625A3.623,3.623,0,0,1,451.67,379.959Z" transform="translate(-371.778 -348.913)" fill="#fff"/>
        <path id="Caminho_1711-4" data-name="Caminho 1711" d="M440.768,379.959a3.625,3.625,0,1,1,3.625,3.625A3.626,3.626,0,0,1,440.768,379.959Z" transform="translate(-387.508 -348.913)" fill="#fff"/>
        <path id="Caminho_1712-4" data-name="Caminho 1712" d="M429.867,379.959a3.625,3.625,0,1,1,3.625,3.625A3.625,3.625,0,0,1,429.867,379.959Z" transform="translate(-403.237 -348.913)" fill="#fff"/>
        <path id="Caminho_1713-4" data-name="Caminho 1713" d="M418.966,379.959a3.625,3.625,0,1,1,3.625,3.625A3.624,3.624,0,0,1,418.966,379.959Z" transform="translate(-418.966 -348.913)" fill="#fff"/>
        <path id="Caminho_1714-4" data-name="Caminho 1714" d="M462.571,368.734a3.625,3.625,0,1,1,3.625,3.625A3.625,3.625,0,0,1,462.571,368.734Z" transform="translate(-356.049 -365.109)" fill="#fff"/>
        <path id="Caminho_1715-4" data-name="Caminho 1715" d="M451.67,368.734a3.624,3.624,0,1,1,3.623,3.625A3.625,3.625,0,0,1,451.67,368.734Z" transform="translate(-371.778 -365.109)" fill="#fff"/>
        <path id="Caminho_1716-4" data-name="Caminho 1716" d="M440.768,368.734a3.625,3.625,0,1,1,3.625,3.625A3.627,3.627,0,0,1,440.768,368.734Z" transform="translate(-387.508 -365.109)" fill="#fff"/>
        <path id="Caminho_1717-4" data-name="Caminho 1717" d="M429.867,368.734a3.625,3.625,0,1,1,3.625,3.625A3.627,3.627,0,0,1,429.867,368.734Z" transform="translate(-403.237 -365.109)" fill="#fff"/>
        <path id="Caminho_1718-4" data-name="Caminho 1718" d="M418.966,368.734a3.625,3.625,0,1,1,3.625,3.625A3.625,3.625,0,0,1,418.966,368.734Z" transform="translate(-418.966 -365.109)" fill="#fff"/>
      </g>
    </g>
    <g id="Grupo_2138-5" data-name="Grupo 2138" transform="translate(117.034 -365.109)">
      <g id="Grupo_2137-5" data-name="Grupo 2137" transform="translate(418.966 365.109)">
        <path id="Caminho_1704-5" data-name="Caminho 1704" d="M462.571,391.183a3.625,3.625,0,1,1,3.625,3.625A3.625,3.625,0,0,1,462.571,391.183Z" transform="translate(-356.049 -332.718)" fill="#fff"/>
        <path id="Caminho_1705-5" data-name="Caminho 1705" d="M451.67,391.183a3.624,3.624,0,1,1,3.623,3.625A3.625,3.625,0,0,1,451.67,391.183Z" transform="translate(-371.778 -332.718)" fill="#fff"/>
        <path id="Caminho_1706-5" data-name="Caminho 1706" d="M440.768,391.183a3.625,3.625,0,1,1,3.625,3.625A3.627,3.627,0,0,1,440.768,391.183Z" transform="translate(-387.508 -332.718)" fill="#fff"/>
        <path id="Caminho_1707-5" data-name="Caminho 1707" d="M429.867,391.183a3.625,3.625,0,1,1,3.625,3.625A3.627,3.627,0,0,1,429.867,391.183Z" transform="translate(-403.237 -332.718)" fill="#fff"/>
        <path id="Caminho_1708-5" data-name="Caminho 1708" d="M418.966,391.183a3.625,3.625,0,1,1,3.625,3.625A3.625,3.625,0,0,1,418.966,391.183Z" transform="translate(-418.966 -332.718)" fill="#fff"/>
        <path id="Caminho_1709-5" data-name="Caminho 1709" d="M462.571,379.959a3.625,3.625,0,1,1,3.625,3.625A3.624,3.624,0,0,1,462.571,379.959Z" transform="translate(-356.049 -348.913)" fill="#fff"/>
        <path id="Caminho_1710-5" data-name="Caminho 1710" d="M451.67,379.959a3.624,3.624,0,1,1,3.623,3.625A3.623,3.623,0,0,1,451.67,379.959Z" transform="translate(-371.778 -348.913)" fill="#fff"/>
        <path id="Caminho_1711-5" data-name="Caminho 1711" d="M440.768,379.959a3.625,3.625,0,1,1,3.625,3.625A3.626,3.626,0,0,1,440.768,379.959Z" transform="translate(-387.508 -348.913)" fill="#fff"/>
        <path id="Caminho_1712-5" data-name="Caminho 1712" d="M429.867,379.959a3.625,3.625,0,1,1,3.625,3.625A3.625,3.625,0,0,1,429.867,379.959Z" transform="translate(-403.237 -348.913)" fill="#fff"/>
        <path id="Caminho_1713-5" data-name="Caminho 1713" d="M418.966,379.959a3.625,3.625,0,1,1,3.625,3.625A3.624,3.624,0,0,1,418.966,379.959Z" transform="translate(-418.966 -348.913)" fill="#fff"/>
        <path id="Caminho_1714-5" data-name="Caminho 1714" d="M462.571,368.734a3.625,3.625,0,1,1,3.625,3.625A3.625,3.625,0,0,1,462.571,368.734Z" transform="translate(-356.049 -365.109)" fill="#fff"/>
        <path id="Caminho_1715-5" data-name="Caminho 1715" d="M451.67,368.734a3.624,3.624,0,1,1,3.623,3.625A3.625,3.625,0,0,1,451.67,368.734Z" transform="translate(-371.778 -365.109)" fill="#fff"/>
        <path id="Caminho_1716-5" data-name="Caminho 1716" d="M440.768,368.734a3.625,3.625,0,1,1,3.625,3.625A3.627,3.627,0,0,1,440.768,368.734Z" transform="translate(-387.508 -365.109)" fill="#fff"/>
        <path id="Caminho_1717-5" data-name="Caminho 1717" d="M429.867,368.734a3.625,3.625,0,1,1,3.625,3.625A3.627,3.627,0,0,1,429.867,368.734Z" transform="translate(-403.237 -365.109)" fill="#fff"/>
        <path id="Caminho_1718-5" data-name="Caminho 1718" d="M418.966,368.734a3.625,3.625,0,1,1,3.625,3.625A3.625,3.625,0,0,1,418.966,368.734Z" transform="translate(-418.966 -365.109)" fill="#fff"/>
      </g>
    </g>
    <g id="Grupo_2138-6" data-name="Grupo 2138" transform="translate(251.034 -365.109)">
      <g id="Grupo_2137-6" data-name="Grupo 2137" transform="translate(418.966 365.109)">
        <path id="Caminho_1704-6" data-name="Caminho 1704" d="M462.571,391.183a3.625,3.625,0,1,1,3.625,3.625A3.625,3.625,0,0,1,462.571,391.183Z" transform="translate(-356.049 -332.718)" fill="#fff"/>
        <path id="Caminho_1705-6" data-name="Caminho 1705" d="M451.67,391.183a3.624,3.624,0,1,1,3.623,3.625A3.625,3.625,0,0,1,451.67,391.183Z" transform="translate(-371.778 -332.718)" fill="#fff"/>
        <path id="Caminho_1706-6" data-name="Caminho 1706" d="M440.768,391.183a3.625,3.625,0,1,1,3.625,3.625A3.627,3.627,0,0,1,440.768,391.183Z" transform="translate(-387.508 -332.718)" fill="#fff"/>
        <path id="Caminho_1707-6" data-name="Caminho 1707" d="M429.867,391.183a3.625,3.625,0,1,1,3.625,3.625A3.627,3.627,0,0,1,429.867,391.183Z" transform="translate(-403.237 -332.718)" fill="#fff"/>
        <path id="Caminho_1708-6" data-name="Caminho 1708" d="M418.966,391.183a3.625,3.625,0,1,1,3.625,3.625A3.625,3.625,0,0,1,418.966,391.183Z" transform="translate(-418.966 -332.718)" fill="#fff"/>
        <path id="Caminho_1709-6" data-name="Caminho 1709" d="M462.571,379.959a3.625,3.625,0,1,1,3.625,3.625A3.624,3.624,0,0,1,462.571,379.959Z" transform="translate(-356.049 -348.913)" fill="#fff"/>
        <path id="Caminho_1710-6" data-name="Caminho 1710" d="M451.67,379.959a3.624,3.624,0,1,1,3.623,3.625A3.623,3.623,0,0,1,451.67,379.959Z" transform="translate(-371.778 -348.913)" fill="#fff"/>
        <path id="Caminho_1711-6" data-name="Caminho 1711" d="M440.768,379.959a3.625,3.625,0,1,1,3.625,3.625A3.626,3.626,0,0,1,440.768,379.959Z" transform="translate(-387.508 -348.913)" fill="#fff"/>
        <path id="Caminho_1712-6" data-name="Caminho 1712" d="M429.867,379.959a3.625,3.625,0,1,1,3.625,3.625A3.625,3.625,0,0,1,429.867,379.959Z" transform="translate(-403.237 -348.913)" fill="#fff"/>
        <path id="Caminho_1713-6" data-name="Caminho 1713" d="M418.966,379.959a3.625,3.625,0,1,1,3.625,3.625A3.624,3.624,0,0,1,418.966,379.959Z" transform="translate(-418.966 -348.913)" fill="#fff"/>
        <path id="Caminho_1714-6" data-name="Caminho 1714" d="M462.571,368.734a3.625,3.625,0,1,1,3.625,3.625A3.625,3.625,0,0,1,462.571,368.734Z" transform="translate(-356.049 -365.109)" fill="#fff"/>
        <path id="Caminho_1715-6" data-name="Caminho 1715" d="M451.67,368.734a3.624,3.624,0,1,1,3.623,3.625A3.625,3.625,0,0,1,451.67,368.734Z" transform="translate(-371.778 -365.109)" fill="#fff"/>
        <path id="Caminho_1716-6" data-name="Caminho 1716" d="M440.768,368.734a3.625,3.625,0,1,1,3.625,3.625A3.627,3.627,0,0,1,440.768,368.734Z" transform="translate(-387.508 -365.109)" fill="#fff"/>
        <path id="Caminho_1717-6" data-name="Caminho 1717" d="M429.867,368.734a3.625,3.625,0,1,1,3.625,3.625A3.627,3.627,0,0,1,429.867,368.734Z" transform="translate(-403.237 -365.109)" fill="#fff"/>
        <path id="Caminho_1718-6" data-name="Caminho 1718" d="M418.966,368.734a3.625,3.625,0,1,1,3.625,3.625A3.625,3.625,0,0,1,418.966,368.734Z" transform="translate(-418.966 -365.109)" fill="#fff"/>
      </g>
    </g>
    <g id="Grupo_2138-7" data-name="Grupo 2138" transform="translate(-418.966 -282.109)">
      <g id="Grupo_2137-7" data-name="Grupo 2137" transform="translate(418.966 365.109)">
        <path id="Caminho_1704-7" data-name="Caminho 1704" d="M462.571,391.183a3.625,3.625,0,1,1,3.625,3.625A3.625,3.625,0,0,1,462.571,391.183Z" transform="translate(-356.049 -332.718)" fill="#fff"/>
        <path id="Caminho_1705-7" data-name="Caminho 1705" d="M451.67,391.183a3.624,3.624,0,1,1,3.623,3.625A3.625,3.625,0,0,1,451.67,391.183Z" transform="translate(-371.778 -332.718)" fill="#fff"/>
        <path id="Caminho_1706-7" data-name="Caminho 1706" d="M440.768,391.183a3.625,3.625,0,1,1,3.625,3.625A3.627,3.627,0,0,1,440.768,391.183Z" transform="translate(-387.508 -332.718)" fill="#fff"/>
        <path id="Caminho_1707-7" data-name="Caminho 1707" d="M429.867,391.183a3.625,3.625,0,1,1,3.625,3.625A3.627,3.627,0,0,1,429.867,391.183Z" transform="translate(-403.237 -332.718)" fill="#fff"/>
        <path id="Caminho_1708-7" data-name="Caminho 1708" d="M418.966,391.183a3.625,3.625,0,1,1,3.625,3.625A3.625,3.625,0,0,1,418.966,391.183Z" transform="translate(-418.966 -332.718)" fill="#fff"/>
        <path id="Caminho_1709-7" data-name="Caminho 1709" d="M462.571,379.959a3.625,3.625,0,1,1,3.625,3.625A3.624,3.624,0,0,1,462.571,379.959Z" transform="translate(-356.049 -348.913)" fill="#fff"/>
        <path id="Caminho_1710-7" data-name="Caminho 1710" d="M451.67,379.959a3.624,3.624,0,1,1,3.623,3.625A3.623,3.623,0,0,1,451.67,379.959Z" transform="translate(-371.778 -348.913)" fill="#fff"/>
        <path id="Caminho_1711-7" data-name="Caminho 1711" d="M440.768,379.959a3.625,3.625,0,1,1,3.625,3.625A3.626,3.626,0,0,1,440.768,379.959Z" transform="translate(-387.508 -348.913)" fill="#fff"/>
        <path id="Caminho_1712-7" data-name="Caminho 1712" d="M429.867,379.959a3.625,3.625,0,1,1,3.625,3.625A3.625,3.625,0,0,1,429.867,379.959Z" transform="translate(-403.237 -348.913)" fill="#fff"/>
        <path id="Caminho_1713-7" data-name="Caminho 1713" d="M418.966,379.959a3.625,3.625,0,1,1,3.625,3.625A3.624,3.624,0,0,1,418.966,379.959Z" transform="translate(-418.966 -348.913)" fill="#fff"/>
        <path id="Caminho_1714-7" data-name="Caminho 1714" d="M462.571,368.734a3.625,3.625,0,1,1,3.625,3.625A3.625,3.625,0,0,1,462.571,368.734Z" transform="translate(-356.049 -365.109)" fill="#fff"/>
        <path id="Caminho_1715-7" data-name="Caminho 1715" d="M451.67,368.734a3.624,3.624,0,1,1,3.623,3.625A3.625,3.625,0,0,1,451.67,368.734Z" transform="translate(-371.778 -365.109)" fill="#fff"/>
        <path id="Caminho_1716-7" data-name="Caminho 1716" d="M440.768,368.734a3.625,3.625,0,1,1,3.625,3.625A3.627,3.627,0,0,1,440.768,368.734Z" transform="translate(-387.508 -365.109)" fill="#fff"/>
        <path id="Caminho_1717-7" data-name="Caminho 1717" d="M429.867,368.734a3.625,3.625,0,1,1,3.625,3.625A3.627,3.627,0,0,1,429.867,368.734Z" transform="translate(-403.237 -365.109)" fill="#fff"/>
        <path id="Caminho_1718-7" data-name="Caminho 1718" d="M418.966,368.734a3.625,3.625,0,1,1,3.625,3.625A3.625,3.625,0,0,1,418.966,368.734Z" transform="translate(-418.966 -365.109)" fill="#fff"/>
      </g>
    </g>
    <g id="Grupo_2138-8" data-name="Grupo 2138" transform="translate(-284.966 -282.109)">
      <g id="Grupo_2137-8" data-name="Grupo 2137" transform="translate(418.966 365.109)">
        <path id="Caminho_1704-8" data-name="Caminho 1704" d="M462.571,391.183a3.625,3.625,0,1,1,3.625,3.625A3.625,3.625,0,0,1,462.571,391.183Z" transform="translate(-356.049 -332.718)" fill="#fff"/>
        <path id="Caminho_1705-8" data-name="Caminho 1705" d="M451.67,391.183a3.624,3.624,0,1,1,3.623,3.625A3.625,3.625,0,0,1,451.67,391.183Z" transform="translate(-371.778 -332.718)" fill="#fff"/>
        <path id="Caminho_1706-8" data-name="Caminho 1706" d="M440.768,391.183a3.625,3.625,0,1,1,3.625,3.625A3.627,3.627,0,0,1,440.768,391.183Z" transform="translate(-387.508 -332.718)" fill="#fff"/>
        <path id="Caminho_1707-8" data-name="Caminho 1707" d="M429.867,391.183a3.625,3.625,0,1,1,3.625,3.625A3.627,3.627,0,0,1,429.867,391.183Z" transform="translate(-403.237 -332.718)" fill="#fff"/>
        <path id="Caminho_1708-8" data-name="Caminho 1708" d="M418.966,391.183a3.625,3.625,0,1,1,3.625,3.625A3.625,3.625,0,0,1,418.966,391.183Z" transform="translate(-418.966 -332.718)" fill="#fff"/>
        <path id="Caminho_1709-8" data-name="Caminho 1709" d="M462.571,379.959a3.625,3.625,0,1,1,3.625,3.625A3.624,3.624,0,0,1,462.571,379.959Z" transform="translate(-356.049 -348.913)" fill="#fff"/>
        <path id="Caminho_1710-8" data-name="Caminho 1710" d="M451.67,379.959a3.624,3.624,0,1,1,3.623,3.625A3.623,3.623,0,0,1,451.67,379.959Z" transform="translate(-371.778 -348.913)" fill="#fff"/>
        <path id="Caminho_1711-8" data-name="Caminho 1711" d="M440.768,379.959a3.625,3.625,0,1,1,3.625,3.625A3.626,3.626,0,0,1,440.768,379.959Z" transform="translate(-387.508 -348.913)" fill="#fff"/>
        <path id="Caminho_1712-8" data-name="Caminho 1712" d="M429.867,379.959a3.625,3.625,0,1,1,3.625,3.625A3.625,3.625,0,0,1,429.867,379.959Z" transform="translate(-403.237 -348.913)" fill="#fff"/>
        <path id="Caminho_1713-8" data-name="Caminho 1713" d="M418.966,379.959a3.625,3.625,0,1,1,3.625,3.625A3.624,3.624,0,0,1,418.966,379.959Z" transform="translate(-418.966 -348.913)" fill="#fff"/>
        <path id="Caminho_1714-8" data-name="Caminho 1714" d="M462.571,368.734a3.625,3.625,0,1,1,3.625,3.625A3.625,3.625,0,0,1,462.571,368.734Z" transform="translate(-356.049 -365.109)" fill="#fff"/>
        <path id="Caminho_1715-8" data-name="Caminho 1715" d="M451.67,368.734a3.624,3.624,0,1,1,3.623,3.625A3.625,3.625,0,0,1,451.67,368.734Z" transform="translate(-371.778 -365.109)" fill="#fff"/>
        <path id="Caminho_1716-8" data-name="Caminho 1716" d="M440.768,368.734a3.625,3.625,0,1,1,3.625,3.625A3.627,3.627,0,0,1,440.768,368.734Z" transform="translate(-387.508 -365.109)" fill="#fff"/>
        <path id="Caminho_1717-8" data-name="Caminho 1717" d="M429.867,368.734a3.625,3.625,0,1,1,3.625,3.625A3.627,3.627,0,0,1,429.867,368.734Z" transform="translate(-403.237 -365.109)" fill="#fff"/>
        <path id="Caminho_1718-8" data-name="Caminho 1718" d="M418.966,368.734a3.625,3.625,0,1,1,3.625,3.625A3.625,3.625,0,0,1,418.966,368.734Z" transform="translate(-418.966 -365.109)" fill="#fff"/>
      </g>
    </g>
    <g id="Grupo_2138-9" data-name="Grupo 2138" transform="translate(-150.966 -282.109)">
      <g id="Grupo_2137-9" data-name="Grupo 2137" transform="translate(418.966 365.109)">
        <path id="Caminho_1704-9" data-name="Caminho 1704" d="M462.571,391.183a3.625,3.625,0,1,1,3.625,3.625A3.625,3.625,0,0,1,462.571,391.183Z" transform="translate(-356.049 -332.718)" fill="#fff"/>
        <path id="Caminho_1705-9" data-name="Caminho 1705" d="M451.67,391.183a3.624,3.624,0,1,1,3.623,3.625A3.625,3.625,0,0,1,451.67,391.183Z" transform="translate(-371.778 -332.718)" fill="#fff"/>
        <path id="Caminho_1706-9" data-name="Caminho 1706" d="M440.768,391.183a3.625,3.625,0,1,1,3.625,3.625A3.627,3.627,0,0,1,440.768,391.183Z" transform="translate(-387.508 -332.718)" fill="#fff"/>
        <path id="Caminho_1707-9" data-name="Caminho 1707" d="M429.867,391.183a3.625,3.625,0,1,1,3.625,3.625A3.627,3.627,0,0,1,429.867,391.183Z" transform="translate(-403.237 -332.718)" fill="#fff"/>
        <path id="Caminho_1708-9" data-name="Caminho 1708" d="M418.966,391.183a3.625,3.625,0,1,1,3.625,3.625A3.625,3.625,0,0,1,418.966,391.183Z" transform="translate(-418.966 -332.718)" fill="#fff"/>
        <path id="Caminho_1709-9" data-name="Caminho 1709" d="M462.571,379.959a3.625,3.625,0,1,1,3.625,3.625A3.624,3.624,0,0,1,462.571,379.959Z" transform="translate(-356.049 -348.913)" fill="#fff"/>
        <path id="Caminho_1710-9" data-name="Caminho 1710" d="M451.67,379.959a3.624,3.624,0,1,1,3.623,3.625A3.623,3.623,0,0,1,451.67,379.959Z" transform="translate(-371.778 -348.913)" fill="#fff"/>
        <path id="Caminho_1711-9" data-name="Caminho 1711" d="M440.768,379.959a3.625,3.625,0,1,1,3.625,3.625A3.626,3.626,0,0,1,440.768,379.959Z" transform="translate(-387.508 -348.913)" fill="#fff"/>
        <path id="Caminho_1712-9" data-name="Caminho 1712" d="M429.867,379.959a3.625,3.625,0,1,1,3.625,3.625A3.625,3.625,0,0,1,429.867,379.959Z" transform="translate(-403.237 -348.913)" fill="#fff"/>
        <path id="Caminho_1713-9" data-name="Caminho 1713" d="M418.966,379.959a3.625,3.625,0,1,1,3.625,3.625A3.624,3.624,0,0,1,418.966,379.959Z" transform="translate(-418.966 -348.913)" fill="#fff"/>
        <path id="Caminho_1714-9" data-name="Caminho 1714" d="M462.571,368.734a3.625,3.625,0,1,1,3.625,3.625A3.625,3.625,0,0,1,462.571,368.734Z" transform="translate(-356.049 -365.109)" fill="#fff"/>
        <path id="Caminho_1715-9" data-name="Caminho 1715" d="M451.67,368.734a3.624,3.624,0,1,1,3.623,3.625A3.625,3.625,0,0,1,451.67,368.734Z" transform="translate(-371.778 -365.109)" fill="#fff"/>
        <path id="Caminho_1716-9" data-name="Caminho 1716" d="M440.768,368.734a3.625,3.625,0,1,1,3.625,3.625A3.627,3.627,0,0,1,440.768,368.734Z" transform="translate(-387.508 -365.109)" fill="#fff"/>
        <path id="Caminho_1717-9" data-name="Caminho 1717" d="M429.867,368.734a3.625,3.625,0,1,1,3.625,3.625A3.627,3.627,0,0,1,429.867,368.734Z" transform="translate(-403.237 -365.109)" fill="#fff"/>
        <path id="Caminho_1718-9" data-name="Caminho 1718" d="M418.966,368.734a3.625,3.625,0,1,1,3.625,3.625A3.625,3.625,0,0,1,418.966,368.734Z" transform="translate(-418.966 -365.109)" fill="#fff"/>
      </g>
    </g>
    <g id="Grupo_2138-10" data-name="Grupo 2138" transform="translate(-16.966 -282.109)">
      <g id="Grupo_2137-10" data-name="Grupo 2137" transform="translate(418.966 365.109)">
        <path id="Caminho_1704-10" data-name="Caminho 1704" d="M462.571,391.183a3.625,3.625,0,1,1,3.625,3.625A3.625,3.625,0,0,1,462.571,391.183Z" transform="translate(-356.049 -332.718)" fill="#fff"/>
        <path id="Caminho_1705-10" data-name="Caminho 1705" d="M451.67,391.183a3.624,3.624,0,1,1,3.623,3.625A3.625,3.625,0,0,1,451.67,391.183Z" transform="translate(-371.778 -332.718)" fill="#fff"/>
        <path id="Caminho_1706-10" data-name="Caminho 1706" d="M440.768,391.183a3.625,3.625,0,1,1,3.625,3.625A3.627,3.627,0,0,1,440.768,391.183Z" transform="translate(-387.508 -332.718)" fill="#fff"/>
        <path id="Caminho_1707-10" data-name="Caminho 1707" d="M429.867,391.183a3.625,3.625,0,1,1,3.625,3.625A3.627,3.627,0,0,1,429.867,391.183Z" transform="translate(-403.237 -332.718)" fill="#fff"/>
        <path id="Caminho_1708-10" data-name="Caminho 1708" d="M418.966,391.183a3.625,3.625,0,1,1,3.625,3.625A3.625,3.625,0,0,1,418.966,391.183Z" transform="translate(-418.966 -332.718)" fill="#fff"/>
        <path id="Caminho_1709-10" data-name="Caminho 1709" d="M462.571,379.959a3.625,3.625,0,1,1,3.625,3.625A3.624,3.624,0,0,1,462.571,379.959Z" transform="translate(-356.049 -348.913)" fill="#fff"/>
        <path id="Caminho_1710-10" data-name="Caminho 1710" d="M451.67,379.959a3.624,3.624,0,1,1,3.623,3.625A3.623,3.623,0,0,1,451.67,379.959Z" transform="translate(-371.778 -348.913)" fill="#fff"/>
        <path id="Caminho_1711-10" data-name="Caminho 1711" d="M440.768,379.959a3.625,3.625,0,1,1,3.625,3.625A3.626,3.626,0,0,1,440.768,379.959Z" transform="translate(-387.508 -348.913)" fill="#fff"/>
        <path id="Caminho_1712-10" data-name="Caminho 1712" d="M429.867,379.959a3.625,3.625,0,1,1,3.625,3.625A3.625,3.625,0,0,1,429.867,379.959Z" transform="translate(-403.237 -348.913)" fill="#fff"/>
        <path id="Caminho_1713-10" data-name="Caminho 1713" d="M418.966,379.959a3.625,3.625,0,1,1,3.625,3.625A3.624,3.624,0,0,1,418.966,379.959Z" transform="translate(-418.966 -348.913)" fill="#fff"/>
        <path id="Caminho_1714-10" data-name="Caminho 1714" d="M462.571,368.734a3.625,3.625,0,1,1,3.625,3.625A3.625,3.625,0,0,1,462.571,368.734Z" transform="translate(-356.049 -365.109)" fill="#fff"/>
        <path id="Caminho_1715-10" data-name="Caminho 1715" d="M451.67,368.734a3.624,3.624,0,1,1,3.623,3.625A3.625,3.625,0,0,1,451.67,368.734Z" transform="translate(-371.778 -365.109)" fill="#fff"/>
        <path id="Caminho_1716-10" data-name="Caminho 1716" d="M440.768,368.734a3.625,3.625,0,1,1,3.625,3.625A3.627,3.627,0,0,1,440.768,368.734Z" transform="translate(-387.508 -365.109)" fill="#fff"/>
        <path id="Caminho_1717-10" data-name="Caminho 1717" d="M429.867,368.734a3.625,3.625,0,1,1,3.625,3.625A3.627,3.627,0,0,1,429.867,368.734Z" transform="translate(-403.237 -365.109)" fill="#fff"/>
        <path id="Caminho_1718-10" data-name="Caminho 1718" d="M418.966,368.734a3.625,3.625,0,1,1,3.625,3.625A3.625,3.625,0,0,1,418.966,368.734Z" transform="translate(-418.966 -365.109)" fill="#fff"/>
      </g>
    </g>
    <g id="Grupo_2138-11" data-name="Grupo 2138" transform="translate(117.034 -282.109)">
      <g id="Grupo_2137-11" data-name="Grupo 2137" transform="translate(418.966 365.109)">
        <path id="Caminho_1704-11" data-name="Caminho 1704" d="M462.571,391.183a3.625,3.625,0,1,1,3.625,3.625A3.625,3.625,0,0,1,462.571,391.183Z" transform="translate(-356.049 -332.718)" fill="#fff"/>
        <path id="Caminho_1705-11" data-name="Caminho 1705" d="M451.67,391.183a3.624,3.624,0,1,1,3.623,3.625A3.625,3.625,0,0,1,451.67,391.183Z" transform="translate(-371.778 -332.718)" fill="#fff"/>
        <path id="Caminho_1706-11" data-name="Caminho 1706" d="M440.768,391.183a3.625,3.625,0,1,1,3.625,3.625A3.627,3.627,0,0,1,440.768,391.183Z" transform="translate(-387.508 -332.718)" fill="#fff"/>
        <path id="Caminho_1707-11" data-name="Caminho 1707" d="M429.867,391.183a3.625,3.625,0,1,1,3.625,3.625A3.627,3.627,0,0,1,429.867,391.183Z" transform="translate(-403.237 -332.718)" fill="#fff"/>
        <path id="Caminho_1708-11" data-name="Caminho 1708" d="M418.966,391.183a3.625,3.625,0,1,1,3.625,3.625A3.625,3.625,0,0,1,418.966,391.183Z" transform="translate(-418.966 -332.718)" fill="#fff"/>
        <path id="Caminho_1709-11" data-name="Caminho 1709" d="M462.571,379.959a3.625,3.625,0,1,1,3.625,3.625A3.624,3.624,0,0,1,462.571,379.959Z" transform="translate(-356.049 -348.913)" fill="#fff"/>
        <path id="Caminho_1710-11" data-name="Caminho 1710" d="M451.67,379.959a3.624,3.624,0,1,1,3.623,3.625A3.623,3.623,0,0,1,451.67,379.959Z" transform="translate(-371.778 -348.913)" fill="#fff"/>
        <path id="Caminho_1711-11" data-name="Caminho 1711" d="M440.768,379.959a3.625,3.625,0,1,1,3.625,3.625A3.626,3.626,0,0,1,440.768,379.959Z" transform="translate(-387.508 -348.913)" fill="#fff"/>
        <path id="Caminho_1712-11" data-name="Caminho 1712" d="M429.867,379.959a3.625,3.625,0,1,1,3.625,3.625A3.625,3.625,0,0,1,429.867,379.959Z" transform="translate(-403.237 -348.913)" fill="#fff"/>
        <path id="Caminho_1713-11" data-name="Caminho 1713" d="M418.966,379.959a3.625,3.625,0,1,1,3.625,3.625A3.624,3.624,0,0,1,418.966,379.959Z" transform="translate(-418.966 -348.913)" fill="#fff"/>
        <path id="Caminho_1714-11" data-name="Caminho 1714" d="M462.571,368.734a3.625,3.625,0,1,1,3.625,3.625A3.625,3.625,0,0,1,462.571,368.734Z" transform="translate(-356.049 -365.109)" fill="#fff"/>
        <path id="Caminho_1715-11" data-name="Caminho 1715" d="M451.67,368.734a3.624,3.624,0,1,1,3.623,3.625A3.625,3.625,0,0,1,451.67,368.734Z" transform="translate(-371.778 -365.109)" fill="#fff"/>
        <path id="Caminho_1716-11" data-name="Caminho 1716" d="M440.768,368.734a3.625,3.625,0,1,1,3.625,3.625A3.627,3.627,0,0,1,440.768,368.734Z" transform="translate(-387.508 -365.109)" fill="#fff"/>
        <path id="Caminho_1717-11" data-name="Caminho 1717" d="M429.867,368.734a3.625,3.625,0,1,1,3.625,3.625A3.627,3.627,0,0,1,429.867,368.734Z" transform="translate(-403.237 -365.109)" fill="#fff"/>
        <path id="Caminho_1718-11" data-name="Caminho 1718" d="M418.966,368.734a3.625,3.625,0,1,1,3.625,3.625A3.625,3.625,0,0,1,418.966,368.734Z" transform="translate(-418.966 -365.109)" fill="#fff"/>
      </g>
    </g>
    <g id="Grupo_2138-12" data-name="Grupo 2138" transform="translate(251.034 -282.109)">
      <g id="Grupo_2137-12" data-name="Grupo 2137" transform="translate(418.966 365.109)">
        <path id="Caminho_1704-12" data-name="Caminho 1704" d="M462.571,391.183a3.625,3.625,0,1,1,3.625,3.625A3.625,3.625,0,0,1,462.571,391.183Z" transform="translate(-356.049 -332.718)" fill="#fff"/>
        <path id="Caminho_1705-12" data-name="Caminho 1705" d="M451.67,391.183a3.624,3.624,0,1,1,3.623,3.625A3.625,3.625,0,0,1,451.67,391.183Z" transform="translate(-371.778 -332.718)" fill="#fff"/>
        <path id="Caminho_1706-12" data-name="Caminho 1706" d="M440.768,391.183a3.625,3.625,0,1,1,3.625,3.625A3.627,3.627,0,0,1,440.768,391.183Z" transform="translate(-387.508 -332.718)" fill="#fff"/>
        <path id="Caminho_1707-12" data-name="Caminho 1707" d="M429.867,391.183a3.625,3.625,0,1,1,3.625,3.625A3.627,3.627,0,0,1,429.867,391.183Z" transform="translate(-403.237 -332.718)" fill="#fff"/>
        <path id="Caminho_1708-12" data-name="Caminho 1708" d="M418.966,391.183a3.625,3.625,0,1,1,3.625,3.625A3.625,3.625,0,0,1,418.966,391.183Z" transform="translate(-418.966 -332.718)" fill="#fff"/>
        <path id="Caminho_1709-12" data-name="Caminho 1709" d="M462.571,379.959a3.625,3.625,0,1,1,3.625,3.625A3.624,3.624,0,0,1,462.571,379.959Z" transform="translate(-356.049 -348.913)" fill="#fff"/>
        <path id="Caminho_1710-12" data-name="Caminho 1710" d="M451.67,379.959a3.624,3.624,0,1,1,3.623,3.625A3.623,3.623,0,0,1,451.67,379.959Z" transform="translate(-371.778 -348.913)" fill="#fff"/>
        <path id="Caminho_1711-12" data-name="Caminho 1711" d="M440.768,379.959a3.625,3.625,0,1,1,3.625,3.625A3.626,3.626,0,0,1,440.768,379.959Z" transform="translate(-387.508 -348.913)" fill="#fff"/>
        <path id="Caminho_1712-12" data-name="Caminho 1712" d="M429.867,379.959a3.625,3.625,0,1,1,3.625,3.625A3.625,3.625,0,0,1,429.867,379.959Z" transform="translate(-403.237 -348.913)" fill="#fff"/>
        <path id="Caminho_1713-12" data-name="Caminho 1713" d="M418.966,379.959a3.625,3.625,0,1,1,3.625,3.625A3.624,3.624,0,0,1,418.966,379.959Z" transform="translate(-418.966 -348.913)" fill="#fff"/>
        <path id="Caminho_1714-12" data-name="Caminho 1714" d="M462.571,368.734a3.625,3.625,0,1,1,3.625,3.625A3.625,3.625,0,0,1,462.571,368.734Z" transform="translate(-356.049 -365.109)" fill="#fff"/>
        <path id="Caminho_1715-12" data-name="Caminho 1715" d="M451.67,368.734a3.624,3.624,0,1,1,3.623,3.625A3.625,3.625,0,0,1,451.67,368.734Z" transform="translate(-371.778 -365.109)" fill="#fff"/>
        <path id="Caminho_1716-12" data-name="Caminho 1716" d="M440.768,368.734a3.625,3.625,0,1,1,3.625,3.625A3.627,3.627,0,0,1,440.768,368.734Z" transform="translate(-387.508 -365.109)" fill="#fff"/>
        <path id="Caminho_1717-12" data-name="Caminho 1717" d="M429.867,368.734a3.625,3.625,0,1,1,3.625,3.625A3.627,3.627,0,0,1,429.867,368.734Z" transform="translate(-403.237 -365.109)" fill="#fff"/>
        <path id="Caminho_1718-12" data-name="Caminho 1718" d="M418.966,368.734a3.625,3.625,0,1,1,3.625,3.625A3.625,3.625,0,0,1,418.966,368.734Z" transform="translate(-418.966 -365.109)" fill="#fff"/>
      </g>
    </g>
    <g id="Grupo_2138-13" data-name="Grupo 2138" transform="translate(-418.966 -199.109)">
      <g id="Grupo_2137-13" data-name="Grupo 2137" transform="translate(418.966 365.109)">
        <path id="Caminho_1704-13" data-name="Caminho 1704" d="M462.571,391.183a3.625,3.625,0,1,1,3.625,3.625A3.625,3.625,0,0,1,462.571,391.183Z" transform="translate(-356.049 -332.718)" fill="#fff"/>
        <path id="Caminho_1705-13" data-name="Caminho 1705" d="M451.67,391.183a3.624,3.624,0,1,1,3.623,3.625A3.625,3.625,0,0,1,451.67,391.183Z" transform="translate(-371.778 -332.718)" fill="#fff"/>
        <path id="Caminho_1706-13" data-name="Caminho 1706" d="M440.768,391.183a3.625,3.625,0,1,1,3.625,3.625A3.627,3.627,0,0,1,440.768,391.183Z" transform="translate(-387.508 -332.718)" fill="#fff"/>
        <path id="Caminho_1707-13" data-name="Caminho 1707" d="M429.867,391.183a3.625,3.625,0,1,1,3.625,3.625A3.627,3.627,0,0,1,429.867,391.183Z" transform="translate(-403.237 -332.718)" fill="#fff"/>
        <path id="Caminho_1708-13" data-name="Caminho 1708" d="M418.966,391.183a3.625,3.625,0,1,1,3.625,3.625A3.625,3.625,0,0,1,418.966,391.183Z" transform="translate(-418.966 -332.718)" fill="#fff"/>
        <path id="Caminho_1709-13" data-name="Caminho 1709" d="M462.571,379.959a3.625,3.625,0,1,1,3.625,3.625A3.624,3.624,0,0,1,462.571,379.959Z" transform="translate(-356.049 -348.913)" fill="#fff"/>
        <path id="Caminho_1710-13" data-name="Caminho 1710" d="M451.67,379.959a3.624,3.624,0,1,1,3.623,3.625A3.623,3.623,0,0,1,451.67,379.959Z" transform="translate(-371.778 -348.913)" fill="#fff"/>
        <path id="Caminho_1711-13" data-name="Caminho 1711" d="M440.768,379.959a3.625,3.625,0,1,1,3.625,3.625A3.626,3.626,0,0,1,440.768,379.959Z" transform="translate(-387.508 -348.913)" fill="#fff"/>
        <path id="Caminho_1712-13" data-name="Caminho 1712" d="M429.867,379.959a3.625,3.625,0,1,1,3.625,3.625A3.625,3.625,0,0,1,429.867,379.959Z" transform="translate(-403.237 -348.913)" fill="#fff"/>
        <path id="Caminho_1713-13" data-name="Caminho 1713" d="M418.966,379.959a3.625,3.625,0,1,1,3.625,3.625A3.624,3.624,0,0,1,418.966,379.959Z" transform="translate(-418.966 -348.913)" fill="#fff"/>
        <path id="Caminho_1714-13" data-name="Caminho 1714" d="M462.571,368.734a3.625,3.625,0,1,1,3.625,3.625A3.625,3.625,0,0,1,462.571,368.734Z" transform="translate(-356.049 -365.109)" fill="#fff"/>
        <path id="Caminho_1715-13" data-name="Caminho 1715" d="M451.67,368.734a3.624,3.624,0,1,1,3.623,3.625A3.625,3.625,0,0,1,451.67,368.734Z" transform="translate(-371.778 -365.109)" fill="#fff"/>
        <path id="Caminho_1716-13" data-name="Caminho 1716" d="M440.768,368.734a3.625,3.625,0,1,1,3.625,3.625A3.627,3.627,0,0,1,440.768,368.734Z" transform="translate(-387.508 -365.109)" fill="#fff"/>
        <path id="Caminho_1717-13" data-name="Caminho 1717" d="M429.867,368.734a3.625,3.625,0,1,1,3.625,3.625A3.627,3.627,0,0,1,429.867,368.734Z" transform="translate(-403.237 -365.109)" fill="#fff"/>
        <path id="Caminho_1718-13" data-name="Caminho 1718" d="M418.966,368.734a3.625,3.625,0,1,1,3.625,3.625A3.625,3.625,0,0,1,418.966,368.734Z" transform="translate(-418.966 -365.109)" fill="#fff"/>
      </g>
    </g>
    <g id="Grupo_2138-14" data-name="Grupo 2138" transform="translate(-284.966 -199.109)">
      <g id="Grupo_2137-14" data-name="Grupo 2137" transform="translate(418.966 365.109)">
        <path id="Caminho_1704-14" data-name="Caminho 1704" d="M462.571,391.183a3.625,3.625,0,1,1,3.625,3.625A3.625,3.625,0,0,1,462.571,391.183Z" transform="translate(-356.049 -332.718)" fill="#fff"/>
        <path id="Caminho_1705-14" data-name="Caminho 1705" d="M451.67,391.183a3.624,3.624,0,1,1,3.623,3.625A3.625,3.625,0,0,1,451.67,391.183Z" transform="translate(-371.778 -332.718)" fill="#fff"/>
        <path id="Caminho_1706-14" data-name="Caminho 1706" d="M440.768,391.183a3.625,3.625,0,1,1,3.625,3.625A3.627,3.627,0,0,1,440.768,391.183Z" transform="translate(-387.508 -332.718)" fill="#fff"/>
        <path id="Caminho_1707-14" data-name="Caminho 1707" d="M429.867,391.183a3.625,3.625,0,1,1,3.625,3.625A3.627,3.627,0,0,1,429.867,391.183Z" transform="translate(-403.237 -332.718)" fill="#fff"/>
        <path id="Caminho_1708-14" data-name="Caminho 1708" d="M418.966,391.183a3.625,3.625,0,1,1,3.625,3.625A3.625,3.625,0,0,1,418.966,391.183Z" transform="translate(-418.966 -332.718)" fill="#fff"/>
        <path id="Caminho_1709-14" data-name="Caminho 1709" d="M462.571,379.959a3.625,3.625,0,1,1,3.625,3.625A3.624,3.624,0,0,1,462.571,379.959Z" transform="translate(-356.049 -348.913)" fill="#fff"/>
        <path id="Caminho_1710-14" data-name="Caminho 1710" d="M451.67,379.959a3.624,3.624,0,1,1,3.623,3.625A3.623,3.623,0,0,1,451.67,379.959Z" transform="translate(-371.778 -348.913)" fill="#fff"/>
        <path id="Caminho_1711-14" data-name="Caminho 1711" d="M440.768,379.959a3.625,3.625,0,1,1,3.625,3.625A3.626,3.626,0,0,1,440.768,379.959Z" transform="translate(-387.508 -348.913)" fill="#fff"/>
        <path id="Caminho_1712-14" data-name="Caminho 1712" d="M429.867,379.959a3.625,3.625,0,1,1,3.625,3.625A3.625,3.625,0,0,1,429.867,379.959Z" transform="translate(-403.237 -348.913)" fill="#fff"/>
        <path id="Caminho_1713-14" data-name="Caminho 1713" d="M418.966,379.959a3.625,3.625,0,1,1,3.625,3.625A3.624,3.624,0,0,1,418.966,379.959Z" transform="translate(-418.966 -348.913)" fill="#fff"/>
        <path id="Caminho_1714-14" data-name="Caminho 1714" d="M462.571,368.734a3.625,3.625,0,1,1,3.625,3.625A3.625,3.625,0,0,1,462.571,368.734Z" transform="translate(-356.049 -365.109)" fill="#fff"/>
        <path id="Caminho_1715-14" data-name="Caminho 1715" d="M451.67,368.734a3.624,3.624,0,1,1,3.623,3.625A3.625,3.625,0,0,1,451.67,368.734Z" transform="translate(-371.778 -365.109)" fill="#fff"/>
        <path id="Caminho_1716-14" data-name="Caminho 1716" d="M440.768,368.734a3.625,3.625,0,1,1,3.625,3.625A3.627,3.627,0,0,1,440.768,368.734Z" transform="translate(-387.508 -365.109)" fill="#fff"/>
        <path id="Caminho_1717-14" data-name="Caminho 1717" d="M429.867,368.734a3.625,3.625,0,1,1,3.625,3.625A3.627,3.627,0,0,1,429.867,368.734Z" transform="translate(-403.237 -365.109)" fill="#fff"/>
        <path id="Caminho_1718-14" data-name="Caminho 1718" d="M418.966,368.734a3.625,3.625,0,1,1,3.625,3.625A3.625,3.625,0,0,1,418.966,368.734Z" transform="translate(-418.966 -365.109)" fill="#fff"/>
      </g>
    </g>
    <g id="Grupo_2138-15" data-name="Grupo 2138" transform="translate(-150.966 -199.109)">
      <g id="Grupo_2137-15" data-name="Grupo 2137" transform="translate(418.966 365.109)">
        <path id="Caminho_1704-15" data-name="Caminho 1704" d="M462.571,391.183a3.625,3.625,0,1,1,3.625,3.625A3.625,3.625,0,0,1,462.571,391.183Z" transform="translate(-356.049 -332.718)" fill="#fff"/>
        <path id="Caminho_1705-15" data-name="Caminho 1705" d="M451.67,391.183a3.624,3.624,0,1,1,3.623,3.625A3.625,3.625,0,0,1,451.67,391.183Z" transform="translate(-371.778 -332.718)" fill="#fff"/>
        <path id="Caminho_1706-15" data-name="Caminho 1706" d="M440.768,391.183a3.625,3.625,0,1,1,3.625,3.625A3.627,3.627,0,0,1,440.768,391.183Z" transform="translate(-387.508 -332.718)" fill="#fff"/>
        <path id="Caminho_1707-15" data-name="Caminho 1707" d="M429.867,391.183a3.625,3.625,0,1,1,3.625,3.625A3.627,3.627,0,0,1,429.867,391.183Z" transform="translate(-403.237 -332.718)" fill="#fff"/>
        <path id="Caminho_1708-15" data-name="Caminho 1708" d="M418.966,391.183a3.625,3.625,0,1,1,3.625,3.625A3.625,3.625,0,0,1,418.966,391.183Z" transform="translate(-418.966 -332.718)" fill="#fff"/>
        <path id="Caminho_1709-15" data-name="Caminho 1709" d="M462.571,379.959a3.625,3.625,0,1,1,3.625,3.625A3.624,3.624,0,0,1,462.571,379.959Z" transform="translate(-356.049 -348.913)" fill="#fff"/>
        <path id="Caminho_1710-15" data-name="Caminho 1710" d="M451.67,379.959a3.624,3.624,0,1,1,3.623,3.625A3.623,3.623,0,0,1,451.67,379.959Z" transform="translate(-371.778 -348.913)" fill="#fff"/>
        <path id="Caminho_1711-15" data-name="Caminho 1711" d="M440.768,379.959a3.625,3.625,0,1,1,3.625,3.625A3.626,3.626,0,0,1,440.768,379.959Z" transform="translate(-387.508 -348.913)" fill="#fff"/>
        <path id="Caminho_1712-15" data-name="Caminho 1712" d="M429.867,379.959a3.625,3.625,0,1,1,3.625,3.625A3.625,3.625,0,0,1,429.867,379.959Z" transform="translate(-403.237 -348.913)" fill="#fff"/>
        <path id="Caminho_1713-15" data-name="Caminho 1713" d="M418.966,379.959a3.625,3.625,0,1,1,3.625,3.625A3.624,3.624,0,0,1,418.966,379.959Z" transform="translate(-418.966 -348.913)" fill="#fff"/>
        <path id="Caminho_1714-15" data-name="Caminho 1714" d="M462.571,368.734a3.625,3.625,0,1,1,3.625,3.625A3.625,3.625,0,0,1,462.571,368.734Z" transform="translate(-356.049 -365.109)" fill="#fff"/>
        <path id="Caminho_1715-15" data-name="Caminho 1715" d="M451.67,368.734a3.624,3.624,0,1,1,3.623,3.625A3.625,3.625,0,0,1,451.67,368.734Z" transform="translate(-371.778 -365.109)" fill="#fff"/>
        <path id="Caminho_1716-15" data-name="Caminho 1716" d="M440.768,368.734a3.625,3.625,0,1,1,3.625,3.625A3.627,3.627,0,0,1,440.768,368.734Z" transform="translate(-387.508 -365.109)" fill="#fff"/>
        <path id="Caminho_1717-15" data-name="Caminho 1717" d="M429.867,368.734a3.625,3.625,0,1,1,3.625,3.625A3.627,3.627,0,0,1,429.867,368.734Z" transform="translate(-403.237 -365.109)" fill="#fff"/>
        <path id="Caminho_1718-15" data-name="Caminho 1718" d="M418.966,368.734a3.625,3.625,0,1,1,3.625,3.625A3.625,3.625,0,0,1,418.966,368.734Z" transform="translate(-418.966 -365.109)" fill="#fff"/>
      </g>
    </g>
    <g id="Grupo_2138-16" data-name="Grupo 2138" transform="translate(-16.966 -199.109)">
      <g id="Grupo_2137-16" data-name="Grupo 2137" transform="translate(418.966 365.109)">
        <path id="Caminho_1704-16" data-name="Caminho 1704" d="M462.571,391.183a3.625,3.625,0,1,1,3.625,3.625A3.625,3.625,0,0,1,462.571,391.183Z" transform="translate(-356.049 -332.718)" fill="#fff"/>
        <path id="Caminho_1705-16" data-name="Caminho 1705" d="M451.67,391.183a3.624,3.624,0,1,1,3.623,3.625A3.625,3.625,0,0,1,451.67,391.183Z" transform="translate(-371.778 -332.718)" fill="#fff"/>
        <path id="Caminho_1706-16" data-name="Caminho 1706" d="M440.768,391.183a3.625,3.625,0,1,1,3.625,3.625A3.627,3.627,0,0,1,440.768,391.183Z" transform="translate(-387.508 -332.718)" fill="#fff"/>
        <path id="Caminho_1707-16" data-name="Caminho 1707" d="M429.867,391.183a3.625,3.625,0,1,1,3.625,3.625A3.627,3.627,0,0,1,429.867,391.183Z" transform="translate(-403.237 -332.718)" fill="#fff"/>
        <path id="Caminho_1708-16" data-name="Caminho 1708" d="M418.966,391.183a3.625,3.625,0,1,1,3.625,3.625A3.625,3.625,0,0,1,418.966,391.183Z" transform="translate(-418.966 -332.718)" fill="#fff"/>
        <path id="Caminho_1709-16" data-name="Caminho 1709" d="M462.571,379.959a3.625,3.625,0,1,1,3.625,3.625A3.624,3.624,0,0,1,462.571,379.959Z" transform="translate(-356.049 -348.913)" fill="#fff"/>
        <path id="Caminho_1710-16" data-name="Caminho 1710" d="M451.67,379.959a3.624,3.624,0,1,1,3.623,3.625A3.623,3.623,0,0,1,451.67,379.959Z" transform="translate(-371.778 -348.913)" fill="#fff"/>
        <path id="Caminho_1711-16" data-name="Caminho 1711" d="M440.768,379.959a3.625,3.625,0,1,1,3.625,3.625A3.626,3.626,0,0,1,440.768,379.959Z" transform="translate(-387.508 -348.913)" fill="#fff"/>
        <path id="Caminho_1712-16" data-name="Caminho 1712" d="M429.867,379.959a3.625,3.625,0,1,1,3.625,3.625A3.625,3.625,0,0,1,429.867,379.959Z" transform="translate(-403.237 -348.913)" fill="#fff"/>
        <path id="Caminho_1713-16" data-name="Caminho 1713" d="M418.966,379.959a3.625,3.625,0,1,1,3.625,3.625A3.624,3.624,0,0,1,418.966,379.959Z" transform="translate(-418.966 -348.913)" fill="#fff"/>
        <path id="Caminho_1714-16" data-name="Caminho 1714" d="M462.571,368.734a3.625,3.625,0,1,1,3.625,3.625A3.625,3.625,0,0,1,462.571,368.734Z" transform="translate(-356.049 -365.109)" fill="#fff"/>
        <path id="Caminho_1715-16" data-name="Caminho 1715" d="M451.67,368.734a3.624,3.624,0,1,1,3.623,3.625A3.625,3.625,0,0,1,451.67,368.734Z" transform="translate(-371.778 -365.109)" fill="#fff"/>
        <path id="Caminho_1716-16" data-name="Caminho 1716" d="M440.768,368.734a3.625,3.625,0,1,1,3.625,3.625A3.627,3.627,0,0,1,440.768,368.734Z" transform="translate(-387.508 -365.109)" fill="#fff"/>
        <path id="Caminho_1717-16" data-name="Caminho 1717" d="M429.867,368.734a3.625,3.625,0,1,1,3.625,3.625A3.627,3.627,0,0,1,429.867,368.734Z" transform="translate(-403.237 -365.109)" fill="#fff"/>
        <path id="Caminho_1718-16" data-name="Caminho 1718" d="M418.966,368.734a3.625,3.625,0,1,1,3.625,3.625A3.625,3.625,0,0,1,418.966,368.734Z" transform="translate(-418.966 -365.109)" fill="#fff"/>
      </g>
    </g>
    <g id="Grupo_2138-17" data-name="Grupo 2138" transform="translate(117.034 -199.109)">
      <g id="Grupo_2137-17" data-name="Grupo 2137" transform="translate(418.966 365.109)">
        <path id="Caminho_1704-17" data-name="Caminho 1704" d="M462.571,391.183a3.625,3.625,0,1,1,3.625,3.625A3.625,3.625,0,0,1,462.571,391.183Z" transform="translate(-356.049 -332.718)" fill="#fff"/>
        <path id="Caminho_1705-17" data-name="Caminho 1705" d="M451.67,391.183a3.624,3.624,0,1,1,3.623,3.625A3.625,3.625,0,0,1,451.67,391.183Z" transform="translate(-371.778 -332.718)" fill="#fff"/>
        <path id="Caminho_1706-17" data-name="Caminho 1706" d="M440.768,391.183a3.625,3.625,0,1,1,3.625,3.625A3.627,3.627,0,0,1,440.768,391.183Z" transform="translate(-387.508 -332.718)" fill="#fff"/>
        <path id="Caminho_1707-17" data-name="Caminho 1707" d="M429.867,391.183a3.625,3.625,0,1,1,3.625,3.625A3.627,3.627,0,0,1,429.867,391.183Z" transform="translate(-403.237 -332.718)" fill="#fff"/>
        <path id="Caminho_1708-17" data-name="Caminho 1708" d="M418.966,391.183a3.625,3.625,0,1,1,3.625,3.625A3.625,3.625,0,0,1,418.966,391.183Z" transform="translate(-418.966 -332.718)" fill="#fff"/>
        <path id="Caminho_1709-17" data-name="Caminho 1709" d="M462.571,379.959a3.625,3.625,0,1,1,3.625,3.625A3.624,3.624,0,0,1,462.571,379.959Z" transform="translate(-356.049 -348.913)" fill="#fff"/>
        <path id="Caminho_1710-17" data-name="Caminho 1710" d="M451.67,379.959a3.624,3.624,0,1,1,3.623,3.625A3.623,3.623,0,0,1,451.67,379.959Z" transform="translate(-371.778 -348.913)" fill="#fff"/>
        <path id="Caminho_1711-17" data-name="Caminho 1711" d="M440.768,379.959a3.625,3.625,0,1,1,3.625,3.625A3.626,3.626,0,0,1,440.768,379.959Z" transform="translate(-387.508 -348.913)" fill="#fff"/>
        <path id="Caminho_1712-17" data-name="Caminho 1712" d="M429.867,379.959a3.625,3.625,0,1,1,3.625,3.625A3.625,3.625,0,0,1,429.867,379.959Z" transform="translate(-403.237 -348.913)" fill="#fff"/>
        <path id="Caminho_1713-17" data-name="Caminho 1713" d="M418.966,379.959a3.625,3.625,0,1,1,3.625,3.625A3.624,3.624,0,0,1,418.966,379.959Z" transform="translate(-418.966 -348.913)" fill="#fff"/>
        <path id="Caminho_1714-17" data-name="Caminho 1714" d="M462.571,368.734a3.625,3.625,0,1,1,3.625,3.625A3.625,3.625,0,0,1,462.571,368.734Z" transform="translate(-356.049 -365.109)" fill="#fff"/>
        <path id="Caminho_1715-17" data-name="Caminho 1715" d="M451.67,368.734a3.624,3.624,0,1,1,3.623,3.625A3.625,3.625,0,0,1,451.67,368.734Z" transform="translate(-371.778 -365.109)" fill="#fff"/>
        <path id="Caminho_1716-17" data-name="Caminho 1716" d="M440.768,368.734a3.625,3.625,0,1,1,3.625,3.625A3.627,3.627,0,0,1,440.768,368.734Z" transform="translate(-387.508 -365.109)" fill="#fff"/>
        <path id="Caminho_1717-17" data-name="Caminho 1717" d="M429.867,368.734a3.625,3.625,0,1,1,3.625,3.625A3.627,3.627,0,0,1,429.867,368.734Z" transform="translate(-403.237 -365.109)" fill="#fff"/>
        <path id="Caminho_1718-17" data-name="Caminho 1718" d="M418.966,368.734a3.625,3.625,0,1,1,3.625,3.625A3.625,3.625,0,0,1,418.966,368.734Z" transform="translate(-418.966 -365.109)" fill="#fff"/>
      </g>
    </g>
    <g id="Grupo_2138-18" data-name="Grupo 2138" transform="translate(251.034 -199.109)">
      <g id="Grupo_2137-18" data-name="Grupo 2137" transform="translate(418.966 365.109)">
        <path id="Caminho_1704-18" data-name="Caminho 1704" d="M462.571,391.183a3.625,3.625,0,1,1,3.625,3.625A3.625,3.625,0,0,1,462.571,391.183Z" transform="translate(-356.049 -332.718)" fill="#fff"/>
        <path id="Caminho_1705-18" data-name="Caminho 1705" d="M451.67,391.183a3.624,3.624,0,1,1,3.623,3.625A3.625,3.625,0,0,1,451.67,391.183Z" transform="translate(-371.778 -332.718)" fill="#fff"/>
        <path id="Caminho_1706-18" data-name="Caminho 1706" d="M440.768,391.183a3.625,3.625,0,1,1,3.625,3.625A3.627,3.627,0,0,1,440.768,391.183Z" transform="translate(-387.508 -332.718)" fill="#fff"/>
        <path id="Caminho_1707-18" data-name="Caminho 1707" d="M429.867,391.183a3.625,3.625,0,1,1,3.625,3.625A3.627,3.627,0,0,1,429.867,391.183Z" transform="translate(-403.237 -332.718)" fill="#fff"/>
        <path id="Caminho_1708-18" data-name="Caminho 1708" d="M418.966,391.183a3.625,3.625,0,1,1,3.625,3.625A3.625,3.625,0,0,1,418.966,391.183Z" transform="translate(-418.966 -332.718)" fill="#fff"/>
        <path id="Caminho_1709-18" data-name="Caminho 1709" d="M462.571,379.959a3.625,3.625,0,1,1,3.625,3.625A3.624,3.624,0,0,1,462.571,379.959Z" transform="translate(-356.049 -348.913)" fill="#fff"/>
        <path id="Caminho_1710-18" data-name="Caminho 1710" d="M451.67,379.959a3.624,3.624,0,1,1,3.623,3.625A3.623,3.623,0,0,1,451.67,379.959Z" transform="translate(-371.778 -348.913)" fill="#fff"/>
        <path id="Caminho_1711-18" data-name="Caminho 1711" d="M440.768,379.959a3.625,3.625,0,1,1,3.625,3.625A3.626,3.626,0,0,1,440.768,379.959Z" transform="translate(-387.508 -348.913)" fill="#fff"/>
        <path id="Caminho_1712-18" data-name="Caminho 1712" d="M429.867,379.959a3.625,3.625,0,1,1,3.625,3.625A3.625,3.625,0,0,1,429.867,379.959Z" transform="translate(-403.237 -348.913)" fill="#fff"/>
        <path id="Caminho_1713-18" data-name="Caminho 1713" d="M418.966,379.959a3.625,3.625,0,1,1,3.625,3.625A3.624,3.624,0,0,1,418.966,379.959Z" transform="translate(-418.966 -348.913)" fill="#fff"/>
        <path id="Caminho_1714-18" data-name="Caminho 1714" d="M462.571,368.734a3.625,3.625,0,1,1,3.625,3.625A3.625,3.625,0,0,1,462.571,368.734Z" transform="translate(-356.049 -365.109)" fill="#fff"/>
        <path id="Caminho_1715-18" data-name="Caminho 1715" d="M451.67,368.734a3.624,3.624,0,1,1,3.623,3.625A3.625,3.625,0,0,1,451.67,368.734Z" transform="translate(-371.778 -365.109)" fill="#fff"/>
        <path id="Caminho_1716-18" data-name="Caminho 1716" d="M440.768,368.734a3.625,3.625,0,1,1,3.625,3.625A3.627,3.627,0,0,1,440.768,368.734Z" transform="translate(-387.508 -365.109)" fill="#fff"/>
        <path id="Caminho_1717-18" data-name="Caminho 1717" d="M429.867,368.734a3.625,3.625,0,1,1,3.625,3.625A3.627,3.627,0,0,1,429.867,368.734Z" transform="translate(-403.237 -365.109)" fill="#fff"/>
        <path id="Caminho_1718-18" data-name="Caminho 1718" d="M418.966,368.734a3.625,3.625,0,1,1,3.625,3.625A3.625,3.625,0,0,1,418.966,368.734Z" transform="translate(-418.966 -365.109)" fill="#fff"/>
      </g>
    </g>
  </g>
</svg>
