<svg xmlns="http://www.w3.org/2000/svg" width="30" height="30.029" viewBox="0 0 30 30.029">
  <g id="Grupo_2401" data-name="Grupo 2401" transform="translate(-789 -726)">
    <path id="Caminho_1604" data-name="Caminho 1604" d="M25.567,4.361a15.008,15.008,0,0,0-21.151,0A14.731,14.731,0,0,0,0,14.875v.007a14.808,14.808,0,0,0,1.827,7.028L.041,30.029l8.212-1.868a15.031,15.031,0,0,0,6.741,1.6H15a14.96,14.96,0,0,0,10.583-4.358,14.722,14.722,0,0,0-.016-21.044ZM15,27.419h-.005a12.668,12.668,0,0,1-6.021-1.526l-.388-.211-5.46,1.242,1.186-5.39-.229-.394A12.528,12.528,0,0,1,2.344,14.88,12.652,12.652,0,0,1,23.913,6.021a12.459,12.459,0,0,1,3.743,8.865A12.613,12.613,0,0,1,15,27.419Zm0,0" transform="translate(789 726)" fill="#fff"/>
    <path id="Caminho_1605" data-name="Caminho 1605" d="M141.64,141.863h-.658a1.262,1.262,0,0,0-.915.428,3.829,3.829,0,0,0-1.2,2.852,6.642,6.642,0,0,0,1.4,3.537c.172.228,2.374,3.791,5.861,5.162,2.9,1.139,3.488.913,4.117.855a3.465,3.465,0,0,0,2.316-1.625,2.85,2.85,0,0,0,.2-1.626c-.086-.142-.315-.228-.658-.4s-2.025-1.012-2.339-1.127-.543-.171-.772.172-.9,1.133-1.1,1.361-.4.257-.743.086a9.486,9.486,0,0,1-2.748-1.7,10.514,10.514,0,0,1-1.928-2.4c-.2-.342-.021-.527.151-.7.154-.153.362-.362.534-.562a2.31,2.31,0,0,0,.335-.57.628.628,0,0,0-.029-.6c-.086-.171-.744-1.862-1.05-2.538h0C142.155,141.892,141.885,141.873,141.64,141.863Zm0,0" transform="translate(658.278 592.457)" fill="#fff"/>
  </g>
</svg>
